<?xml version="1.0" standalone="no"?>
<!DOCTYPE svg PUBLIC "-//W3C//DTD SVG 20010904//EN"
 "http://www.w3.org/TR/2001/REC-SVG-20010904/DTD/svg10.dtd">
<svg version="1.0" xmlns="http://www.w3.org/2000/svg"
 width="192.000000pt" height="192.000000pt" viewBox="0 0 192.000000 192.000000"
 preserveAspectRatio="xMidYMid meet">

<g transform="translate(0.000000,192.000000) scale(0.100000,-0.100000)"
fill="#000000" stroke="none">
<path d="M775 1870 c-165 -35 -291 -97 -416 -203 -167 -143 -265 -311 -309
-531 -61 -302 34 -610 256 -833 133 -133 286 -214 478 -253 126 -26 227 -25
356 1 308 63 554 264 677 552 40 95 73 254 73 353 0 90 -32 259 -65 343 -164
419 -613 663 -1050 571z m800 -391 c151 -57 239 -184 214 -314 -18 -96 -31
-108 -553 -527 -149 -120 -279 -218 -289 -218 -21 0 -127 79 -127 95 0 6 69
63 153 127 83 64 169 131 191 150 l38 33 -96 75 c-52 41 -95 80 -96 87 0 17
92 93 114 93 11 0 61 -31 111 -70 50 -38 97 -70 104 -70 17 0 257 195 265 215
14 38 6 98 -19 131 -50 65 -179 83 -259 36 -17 -10 -193 -148 -390 -305 -197
-158 -366 -287 -376 -287 -10 0 -98 64 -196 143 -208 167 -238 205 -238 311 1
113 68 202 200 263 53 25 70 28 165 28 101 0 108 -1 180 -37 40 -21 116 -71
168 -113 51 -41 99 -75 105 -75 14 0 73 40 156 105 100 79 128 97 194 121 83
31 203 32 281 3z"/>
<path d="M405 1311 c-77 -35 -114 -109 -89 -176 9 -24 222 -195 242 -195 19 0
231 161 244 185 7 11 -17 35 -92 95 -56 44 -114 87 -130 95 -40 20 -126 19
-175 -4z"/>
</g>
</svg>
